<svg id="logosandtypes_com" xmlns="http://www.w3.org/2000/svg" viewBox="0 0 150 150"><path d="M0 0h150v150H0V0z" fill="none"/><path d="M75.4 11.4C40 11.4 12 39.6 12 75c0 35.4 28.1 63.6 63.5 63.6S139 110.4 139 75c-.1-35.4-28.1-63.6-63.6-63.6zM108.8 90c-1.9 14.8-12.1 24.6-27.5 24.6-16.6 0-27.2-11.5-27.2-27.9V73.5H43.5c-3.6 0-5.6-2-5.6-5.6v-1.7c0-3.6 2-5.6 5.6-5.6h18.7c1 0 2 .2 2.7.5-.2-.6-.3-1.4-.3-2.2V40.2c0-3.6 2-5.6 5.6-5.6h2.6c3.6 0 5.6 2 5.6 5.6v11.5H89c3.6 0 5.6 2 5.6 5.6V59c0 3.6-2 5.6-5.6 5.6H70.3c-1 0-2-.2-2.7-.5.2.6.3 1.4.3 2.2v20.4c0 8.7 5.2 14.7 13.4 14.7 7 0 12.4-4.6 13.3-11.3.5-3.7 2-5.6 5.6-5.6h3.6c3.1-.1 5.5 1.8 5 5.5z" fill="#00d66c"/></svg>